<svg xmlns="http://www.w3.org/2000/svg" viewBox="0 0 1024 1024"><path d="M489.0 46.5C492.8 45.7 495.3 45.7 499.0 46.5C502.7 47.3 507.6 49.2 511.0 51.5C514.4 53.8 517.2 56.6 519.5 60.0C521.8 63.4 522.2 -2.1 524.5 72.0C526.8 146.1 529.4 432.4 533.0 504.5C536.6 576.6 543.6 505.2 546.0 504.5C548.4 503.8 541.6 560.8 547.5 500.0C553.4 439.2 575.3 202.3 581.5 140.0C587.7 77.7 583.0 129.8 584.5 126.0C586.0 122.2 587.4 119.8 590.5 117.0C593.6 114.2 598.6 110.9 603.0 109.5C607.4 108.1 612.2 107.3 617.0 108.5C621.8 109.7 628.1 112.6 632.0 116.5C635.9 120.4 642.1 67.4 640.5 132.0C638.9 196.6 621.0 442.2 622.5 504.0C624.0 565.8 638.2 540.2 649.5 503.0C660.8 465.8 681.6 319.9 690.5 281.0C699.4 242.1 698.8 271.6 703.0 269.5C707.2 267.4 712.3 268.0 716.0 268.5C719.7 269.0 722.1 270.1 725.0 272.5C727.9 274.9 731.9 278.8 733.5 283.0C735.1 287.2 740.0 250.3 734.5 298.0C729.0 345.7 709.5 524.2 700.5 569.0C691.5 613.8 682.5 563.2 680.5 567.0C678.5 570.8 685.6 573.8 688.5 592.0C691.4 610.2 663.6 696.4 698.0 676.5C732.4 656.6 859.8 507.5 895.0 472.5C930.2 437.5 904.2 467.3 909.0 466.5C913.8 465.7 918.4 465.1 924.0 467.5C929.6 469.9 938.6 476.8 942.5 481.0C946.4 485.2 946.7 488.8 947.5 493.0C948.3 497.2 948.5 501.7 947.5 506.0C946.5 510.3 976.8 474.1 941.5 519.0C906.2 563.9 777.9 739.2 736.0 775.5C694.1 811.8 700.2 733.4 690.0 736.5C679.8 739.6 678.2 783.1 674.5 794.0C670.8 804.9 674.2 794.8 667.5 802.0C660.8 809.2 645.8 831.5 634.0 837.5C622.2 843.5 602.2 836.4 596.5 838.0C590.8 839.6 599.0 826.3 599.5 847.0C600.0 867.7 600.8 939.7 599.5 962.0C598.2 984.3 594.6 976.1 591.5 981.0C588.4 985.9 586.1 988.4 581.0 991.5C575.9 994.6 584.0 998.2 561.0 999.5C538.0 1000.8 466.0 1000.8 443.0 999.5C420.0 998.2 428.1 994.6 423.0 991.5C417.9 988.4 415.6 985.9 412.5 981.0C409.4 976.1 405.8 984.3 404.5 962.0C403.2 939.7 404.0 867.7 404.5 847.0C405.0 826.3 414.1 839.6 407.5 838.0C400.9 836.4 378.7 844.7 365.0 837.5C351.3 830.3 336.4 817.8 325.5 795.0C314.6 772.2 301.8 735.3 299.5 701.0C297.2 666.7 304.8 621.7 311.5 589.0C318.2 556.3 331.8 519.2 339.5 505.0C347.2 490.8 357.0 562.3 357.5 504.0C358.0 445.7 343.2 215.6 342.5 155.0C341.8 94.4 349.1 143.9 353.0 140.5C356.9 137.1 360.3 134.8 366.0 134.5C371.7 134.2 381.2 135.1 387.0 138.5C392.8 141.9 392.6 94.6 400.5 155.0C408.4 215.4 428.6 442.8 434.5 501.0C440.4 559.2 433.4 503.9 436.0 504.5C438.6 505.1 445.6 576.8 450.0 504.5C454.4 432.2 458.2 146.5 462.5 71.0C466.8 -4.5 471.6 55.6 476.0 51.5C480.4 47.4 485.2 47.3 489.0 46.5Z" fill="#F0C3AC" stroke="#B9795F" stroke-width="8" stroke-linejoin="round"/></svg>